<svg xmlns="http://www.w3.org/2000/svg" width="768" height="193.53552178899085" viewBox="0 0 1090 274.6793212890625" version="1.1">
<g transform="translate(-55,-462.77099609375)"><path d="M 400.356 494.567 C 400.726 501.055, 401.174 506.508, 401.351 506.684 C 401.528 506.861, 411.984 508.570, 424.586 510.482 C 437.189 512.393, 448.962 514.212, 450.750 514.524 L 454 515.091 454 503.045 C 454 496.420, 453.755 491, 453.455 491 C 452.441 491, 405.523 483.952, 402.591 483.359 L 399.682 482.771 400.356 494.567 M 466.243 561.860 L 466.500 629.467 490.500 635.208 C 503.700 638.365, 515.513 641.193, 516.750 641.493 L 519 642.038 519 574.558 L 519 507.077 515.250 506.096 C 504.377 503.250, 493.035 500.475, 480.243 497.533 L 465.986 494.253 466.243 561.860 M 302 512.696 C 292.720 513.120, 265.812 515.855, 265.234 516.433 C 265 516.666, 267.825 525.327, 271.510 535.679 C 275.196 546.030, 278.653 555.850, 279.194 557.500 C 280.030 560.054, 279.478 562.284, 275.479 572.500 C 271.248 583.307, 259 617.969, 259 619.134 C 259 619.393, 264.512 619.020, 271.250 618.305 C 277.988 617.589, 289.944 616.642, 297.819 616.199 C 307.636 615.647, 312.387 614.991, 312.930 614.113 C 313.365 613.409, 314.469 608.258, 315.382 602.667 C 319.706 576.197, 321.319 569, 322.925 569.008 C 324.155 569.014, 325.433 573.232, 328.757 588.258 C 331.098 598.841, 333.464 609.124, 334.015 611.108 L 335.016 614.716 345.758 615.344 C 351.666 615.689, 363.883 616.272, 372.907 616.640 C 388.731 617.285, 389.294 617.241, 388.753 615.405 C 388.444 614.357, 383.399 601.137, 377.541 586.026 L 366.891 558.552 377.473 536.637 C 383.293 524.584, 387.930 514.620, 387.778 514.494 C 387.197 514.019, 334.831 511.836, 334.397 512.269 C 334.147 512.520, 332.617 519.649, 330.997 528.112 C 327.176 548.080, 327.198 548, 325.573 548 C 324.175 548, 322.593 540.685, 319.734 521 L 318.500 512.500 314 512.427 C 311.525 512.386, 306.125 512.507, 302 512.696 M 114.500 516.615 C 107.900 518.495, 96.313 521.891, 88.750 524.160 L 75 528.287 75 595.711 C 75 659.450, 75.096 663.107, 76.750 662.628 C 77.713 662.350, 88.850 659.144, 101.500 655.506 C 114.150 651.867, 125.287 648.659, 126.250 648.377 C 127.894 647.896, 128 643.792, 128 580.433 C 128 543.345, 127.662 513.044, 127.250 513.098 C 126.838 513.152, 121.100 514.734, 114.500 516.615 M 401.628 526.250 C 400.459 547.486, 399.950 617.851, 400.961 618.476 C 401.511 618.816, 407.257 619.753, 413.731 620.559 C 420.204 621.364, 431.696 623.075, 439.269 624.361 L 453.038 626.698 453.670 624.178 C 454.378 621.358, 453.462 525.128, 452.720 524.387 C 451.708 523.375, 408.360 516, 403.422 516 C 402.566 516, 402.021 519.113, 401.628 526.250 M 225.224 522.460 C 212.423 524.802, 201.719 526.948, 201.437 527.230 C 201.155 527.511, 199.310 536.462, 197.336 547.121 C 195.362 557.779, 193.416 566.866, 193.010 567.314 C 192.605 567.761, 191.967 565.286, 191.593 561.814 C 190.641 552.980, 186.880 531.644, 186.126 530.801 C 185.633 530.250, 135.135 542.440, 134.414 543.284 C 134.312 543.403, 140.453 561.500, 148.059 583.500 C 155.665 605.500, 162.426 625.975, 163.083 629 C 164.443 635.267, 163.317 643.061, 160.409 647.498 C 158.506 650.403, 149.827 655.162, 143.157 656.958 L 138.864 658.114 139.182 673.976 C 139.357 682.701, 139.784 690.122, 140.131 690.467 C 140.478 690.813, 145.428 689.934, 151.131 688.515 C 183.549 680.447, 190.389 677.698, 197.373 669.930 C 203.537 663.075, 206.446 656.502, 216.899 625.818 C 221.830 611.343, 232.121 581.163, 239.767 558.750 L 253.670 518 251.085 518.102 C 249.663 518.157, 238.026 520.119, 225.224 522.460 M 1101.500 537.574 C 1089.400 541.125, 1077.813 544.490, 1075.750 545.053 L 1072 546.077 1072 613.539 C 1072 650.642, 1072.278 681, 1072.617 681 C 1073.142 681, 1087.223 676.954, 1118.250 667.888 L 1125 665.915 1125 598.458 C 1125 561.356, 1124.662 531.027, 1124.250 531.059 C 1123.838 531.092, 1113.600 534.024, 1101.500 537.574 M 525.952 543.750 C 538.018 584.594, 553.436 638.693, 554.235 642.990 C 555.497 649.774, 554.705 654.834, 551.805 658.521 C 549.715 661.177, 549.478 661.229, 542.272 660.576 C 538.208 660.207, 533.754 659.477, 532.374 658.952 L 529.865 657.998 530.183 674.419 C 530.357 683.450, 530.741 691.079, 531.036 691.372 C 531.790 692.122, 552.475 698.324, 564.946 701.539 C 576.520 704.523, 582.847 704.441, 588.332 701.238 C 594.691 697.524, 598.148 691.244, 609.934 662 C 630.442 611.116, 644.778 575, 644.469 575 C 644.265 575, 632.527 571.623, 618.386 567.496 C 604.245 563.368, 592.476 560.191, 592.232 560.434 C 591.989 560.678, 590.249 568.442, 588.365 577.689 C 586.482 586.935, 584.657 595.175, 584.308 596 C 583.960 596.825, 583.298 594.575, 582.837 591 C 580.976 576.571, 577.711 556.458, 577.124 555.807 C 576.623 555.251, 526.975 541, 525.539 541 C 525.319 541, 525.505 542.237, 525.952 543.750 M 661 566.598 L 661 580.904 656.250 579.463 C 653.638 578.670, 651.388 578.017, 651.250 578.011 C 651.112 578.005, 651 583.580, 651 590.400 L 651 602.801 655.914 603.979 L 660.828 605.158 661.239 635.829 C 661.596 662.428, 661.893 667.155, 663.481 671.433 C 665.404 676.612, 671.752 683.789, 676.642 686.312 C 678.214 687.123, 689.850 690.269, 702.500 693.304 C 715.150 696.339, 726.737 699.136, 728.250 699.520 L 731 700.217 731 684.147 L 731 668.077 726.750 666.992 C 719.994 665.267, 716.995 663.859, 715.962 661.929 C 715.433 660.940, 715 650.847, 715 639.498 C 715 620.312, 715.123 618.902, 716.750 619.395 C 719.112 620.111, 727.308 621.945, 728.281 621.976 C 728.710 621.989, 728.935 616.504, 728.781 609.786 L 728.500 597.572 725.500 596.803 C 723.850 596.380, 720.600 595.562, 718.277 594.986 L 714.055 593.938 713.777 579.813 L 713.500 565.688 699.500 562.378 C 691.800 560.558, 679.987 557.544, 673.250 555.680 L 661 552.292 661 566.598 M 741.467 578.232 C 741.866 584.979, 742.262 590.529, 742.346 590.565 C 743.269 590.952, 791.085 598.013, 792.750 598.007 C 794.952 598, 795 597.754, 795 586.579 L 795 575.159 792.250 574.576 C 790.737 574.256, 779.150 572.411, 766.500 570.475 C 753.850 568.540, 742.879 566.733, 742.120 566.460 C 740.971 566.046, 740.862 568.009, 741.467 578.232 M 1013 590.490 C 980.300 594.717, 953.086 608.150, 944.961 624.076 C 942.966 627.988, 939.447 640.780, 940.168 641.501 C 940.403 641.737, 951.825 640.033, 965.548 637.715 L 990.500 633.500 991.169 628.017 C 991.707 623.609, 992.446 621.991, 994.935 619.767 C 998.294 616.765, 999.546 616.497, 1003.385 617.956 C 1006.734 619.230, 1008.501 625.427, 1007.050 630.815 C 1005.029 638.321, 1000.671 640.593, 974.279 647.903 C 964.257 650.678, 954.430 653.629, 952.441 654.460 C 946.650 656.880, 941.621 661.450, 938.449 667.176 C 935.796 671.965, 935.500 673.405, 935.500 681.500 C 935.500 689.535, 935.797 691.006, 938.272 695.216 C 948.584 712.757, 972.993 712.628, 999.149 694.893 C 1002.256 692.786, 1005.800 689.442, 1007.024 687.461 L 1009.249 683.861 1011.551 689.523 C 1012.816 692.637, 1014.090 695.424, 1014.382 695.715 C 1014.793 696.126, 1055.107 686.362, 1060.721 684.492 C 1061.665 684.177, 1061.629 683.199, 1060.559 680.167 C 1059.584 677.404, 1059.017 668.619, 1058.637 650.374 C 1058.011 620.381, 1057.166 613.888, 1052.729 605 C 1046.298 592.118, 1034.301 587.736, 1013 590.490 M 742.625 616.417 C 742.309 625.813, 741.790 648.885, 741.473 667.689 L 740.896 701.877 744.698 702.948 C 751.117 704.755, 791.593 710.370, 793.349 709.696 C 794.848 709.121, 794.988 705.413, 794.873 669.281 C 794.803 647.402, 794.465 624.570, 794.123 618.544 L 793.500 607.587 778 605.296 C 769.475 604.035, 758.158 602.178, 752.851 601.169 L 743.201 599.334 742.625 616.417 M 851.500 609.054 C 838.726 610.751, 823.841 617.262, 816.026 624.572 C 801.341 638.308, 797.694 666.709, 807.945 687.500 C 816.403 704.654, 838.830 716.845, 863 717.427 C 889.865 718.075, 914.802 705.142, 924.318 685.627 C 926.859 680.417, 930.448 667.114, 929.554 666.220 C 929.356 666.023, 921.084 666.568, 911.170 667.431 C 901.256 668.294, 890.700 669, 887.712 669 C 884.724 669, 880.191 669.286, 877.640 669.636 C 873.357 670.223, 873 670.491, 873 673.116 C 873 677.289, 870.098 683.834, 867.944 684.518 C 865.128 685.411, 862.007 683.260, 860.344 679.280 C 858.209 674.172, 858.252 654.084, 860.413 646.651 C 862.257 640.307, 865.880 636.825, 868.432 638.944 C 870.230 640.436, 873 648.462, 873 652.178 C 873 654.824, 873.261 655, 877.177 655 C 883.220 655, 928.424 651.851, 928.911 651.396 C 929.832 650.535, 926.673 639.664, 923.871 634.058 C 918.436 623.180, 906.556 615.344, 888.818 610.935 C 879.194 608.543, 861.908 607.671, 851.500 609.054 M 1000.516 653.996 C 994.583 657.851, 990.996 662.560, 991.004 666.484 C 991.006 667.593, 991.899 669.962, 992.989 671.750 C 995.565 675.975, 1000.371 676.242, 1004.923 672.411 C 1007.978 669.841, 1008 669.751, 1008 659.911 C 1008 654.460, 1007.663 650.024, 1007.250 650.054 C 1006.837 650.084, 1003.807 651.858, 1000.516 653.996" stroke="none" fill="#ae00ff" fill-rule="evenodd"/></g></svg>